{"glyphs":{"0":{"ha":1097,"x_min":69,"x_max":1028,"o":"m 549 -14 q 346 22 435 -14 q 195 122 257 57 q 101 278 133 186 q 69 486 69 371 q 101 693 69 600 q 195 851 133 786 q 346 951 257 915 q 549 986 435 986 q 751 951 663 986 q 901 851 840 915 q 995 693 963 786 q 1028 486 1028 600 q 995 278 1028 371 q 901 122 963 186 q 751 22 840 57 q 549 -14 663 -14 m 549 246 q 624 264 593 246 q 673 314 654 282 q 700 390 692 346 q 708 486 708 433 q 700 583 708 539 q 673 658 692 626 q 624 708 654 690 q 549 726 593 726 q 474 708 504 726 q 424 658 443 690 q 397 583 406 626 q 389 486 389 539 q 397 390 389 433 q 424 314 406 346 q 474 264 443 282 q 549 246 504 246 z "},"1":{"ha":643,"x_min":28,"x_max":546,"o":"m 240 583 l 28 583 l 28 764 l 296 972 l 546 972 l 546 0 l 240 0 l 240 583 z "},"2":{"ha":1043,"x_min":69,"x_max":967,"o":"m 69 194 q 113 335 69 281 q 223 423 157 389 q 365 478 289 457 q 508 522 442 500 q 617 573 574 543 q 661 653 661 603 q 632 717 661 693 q 531 740 603 740 q 464 729 489 740 q 424 701 439 718 q 405 664 410 685 q 400 625 400 643 l 400 574 l 94 574 l 94 625 q 203 901 94 817 q 531 986 311 986 q 858 906 750 986 q 967 653 967 825 q 926 509 967 568 q 826 409 886 450 q 695 342 765 368 q 565 299 625 317 q 464 267 504 282 q 424 236 424 253 l 965 236 l 965 0 l 69 0 l 69 194 z "},"3":{"ha":983,"x_min":42,"x_max":942,"o":"m 492 -14 q 151 72 261 -14 q 42 324 42 157 l 42 344 l 347 344 l 347 324 q 358 278 347 296 q 389 251 369 261 q 435 239 408 242 q 492 236 461 236 q 549 240 522 236 q 594 252 575 243 q 625 278 614 261 q 636 324 636 296 q 625 369 636 351 q 594 398 614 388 q 549 412 575 408 q 492 415 522 415 l 168 415 l 168 579 l 456 703 l 569 736 l 569 767 l 456 736 l 85 736 l 85 972 l 889 972 l 889 736 l 653 643 l 539 615 l 539 585 l 653 610 q 773 589 719 610 q 864 531 826 568 q 922 440 901 493 q 942 324 942 388 q 832 72 942 157 q 492 -14 722 -14 z "},"4":{"ha":1028,"x_min":35,"x_max":1000,"o":"m 569 181 l 35 181 l 35 417 l 472 972 l 875 972 l 875 417 l 1000 417 l 1000 181 l 875 181 l 875 0 l 569 0 l 569 181 m 574 413 l 574 678 l 621 792 l 590 792 l 531 678 l 321 419 l 321 413 l 574 413 z "},"5":{"ha":997,"x_min":83,"x_max":956,"o":"m 519 -14 q 192 70 300 -14 q 83 306 83 154 l 389 306 q 404 271 389 286 q 442 247 415 257 q 519 236 469 236 q 613 259 576 236 q 650 335 650 282 q 613 413 650 388 q 519 438 576 438 q 450 430 475 438 q 411 413 425 422 q 389 389 396 401 l 83 389 l 83 972 l 889 972 l 889 736 l 381 736 l 381 611 l 388 611 q 431 632 404 622 q 492 646 454 639 q 588 653 529 653 q 737 635 669 653 q 853 578 804 617 q 928 479 901 539 q 956 335 956 419 q 847 76 956 165 q 519 -14 739 -14 z "},"6":{"ha":1050,"x_min":69,"x_max":994,"o":"m 535 -14 q 319 23 408 -14 q 175 126 231 60 q 94 283 119 192 q 69 485 69 375 q 96 686 69 594 q 178 844 122 778 q 320 949 233 911 q 526 986 407 986 q 717 962 635 986 q 853 896 799 938 q 934 799 907 854 q 961 681 961 743 l 961 667 l 636 667 q 632 683 636 672 q 617 706 628 694 q 585 727 606 718 q 529 736 564 736 q 464 724 490 736 q 422 691 438 713 q 400 640 407 669 q 393 574 393 610 l 400 574 q 449 600 419 588 q 510 619 474 611 q 600 628 547 628 q 890 548 786 628 q 994 326 994 468 q 963 183 994 246 q 872 76 931 119 q 727 9 813 32 q 535 -14 642 -14 m 535 236 q 638 259 601 236 q 675 324 675 282 q 637 386 674 365 q 533 407 600 407 q 444 388 483 407 q 404 322 404 368 q 444 256 404 276 q 535 236 483 236 z "},"7":{"ha":889,"x_min":42,"x_max":854,"o":"m 521 722 l 42 722 l 42 972 l 854 972 l 854 722 l 472 0 l 139 0 l 521 722 z "},"8":{"ha":1033,"x_min":56,"x_max":978,"o":"m 517 -14 q 320 1 406 -14 q 176 51 235 17 q 86 138 117 85 q 56 267 56 192 q 91 390 56 343 q 171 463 126 436 q 286 506 221 492 l 286 519 q 186 563 231 535 q 118 627 149 586 q 88 732 88 668 q 113 828 88 782 q 190 910 138 875 q 323 965 242 944 q 517 986 404 986 q 710 965 629 986 q 844 910 792 944 q 921 828 896 875 q 946 732 946 782 q 915 627 946 668 q 846 563 883 586 q 747 519 801 535 l 747 506 q 863 463 811 492 q 942 390 906 436 q 978 267 978 343 q 947 138 978 192 q 858 51 917 85 q 713 1 799 17 q 517 -14 626 -14 m 517 214 q 585 222 558 214 q 628 244 613 231 q 649 273 643 257 q 656 304 656 289 q 649 338 656 322 q 628 367 643 354 q 585 386 613 379 q 517 393 558 393 q 448 386 475 393 q 406 367 421 379 q 384 338 390 354 q 378 304 378 322 q 384 273 378 289 q 406 244 390 257 q 448 222 421 231 q 517 214 475 214 m 517 599 q 597 622 569 599 q 624 679 624 646 q 597 736 624 714 q 517 758 569 758 q 437 736 464 758 q 410 679 410 714 q 437 622 410 646 q 517 599 464 599 z "},"9":{"ha":1057,"x_min":63,"x_max":988,"o":"m 517 -14 q 318 10 403 -14 q 178 76 233 35 q 95 174 122 118 q 68 292 68 229 l 68 306 l 393 306 q 398 289 393 300 q 416 266 403 278 q 453 245 429 254 q 514 236 476 236 q 628 278 593 236 q 663 403 663 319 l 656 403 q 613 374 639 386 q 553 353 589 363 q 464 344 517 344 q 295 365 369 344 q 169 425 221 386 q 90 519 117 464 q 63 646 63 575 q 94 790 63 726 q 185 897 125 853 q 330 963 244 940 q 522 986 415 986 q 738 949 649 986 q 882 847 826 913 q 963 689 938 781 q 988 488 988 597 q 959 286 988 378 q 872 128 931 194 q 725 24 814 61 q 517 -14 636 -14 m 524 565 q 613 585 574 565 q 651 650 651 604 q 613 716 651 696 q 522 736 574 736 q 419 713 456 736 q 382 649 382 690 q 420 586 383 607 q 524 565 457 565 z "}," ":{"ha":347,"x_min":0,"x_max":0,"o":""},"!":{"ha":458,"x_min":83,"x_max":375,"o":"m 229 -14 q 123 22 163 -14 q 83 125 83 58 q 123 228 83 192 q 229 264 163 264 q 335 228 296 264 q 375 125 375 192 q 335 22 375 58 q 229 -14 296 -14 m 90 790 l 90 972 l 368 972 l 368 790 l 332 319 l 125 319 l 90 790 z "},"\"":{"ha":708,"x_min":69,"x_max":639,"o":"m 69 861 l 69 972 l 306 972 l 306 861 l 278 569 l 97 569 l 69 861 m 403 861 l 403 972 l 639 972 l 639 861 l 611 569 l 431 569 l 403 861 z "},"#":{"ha":1019,"x_min":14,"x_max":1006,"o":"m 144 208 l 14 208 l 14 389 l 189 389 l 236 583 l 119 583 l 119 764 l 279 764 l 331 972 l 546 972 l 494 764 l 660 764 l 711 972 l 926 972 l 875 764 l 1006 764 l 1006 583 l 832 583 l 785 389 l 913 389 l 913 208 l 740 208 l 690 0 l 475 0 l 525 208 l 360 208 l 310 0 l 94 0 l 144 208 m 571 385 l 621 588 l 450 588 l 400 385 l 571 385 z "},"$":{"ha":994,"x_min":49,"x_max":946,"o":"m 347 -1 q 124 99 199 22 q 49 300 49 176 l 49 343 l 368 343 l 368 300 q 405 235 368 251 q 497 218 442 218 q 590 236 553 218 q 626 297 626 254 q 601 356 626 338 q 508 375 575 375 q 175 457 281 375 q 69 686 69 539 q 140 872 69 797 q 346 974 210 947 l 346 1139 l 638 1139 l 638 971 q 831 873 764 944 q 897 686 897 801 l 897 663 l 578 663 l 578 686 q 558 734 578 714 q 483 754 539 754 q 408 736 428 754 q 389 689 389 718 q 417 635 389 651 q 511 619 446 619 q 713 597 631 619 q 848 531 796 574 q 923 430 900 489 q 946 300 946 371 q 869 102 946 182 q 639 -3 792 22 l 639 -167 l 347 -167 l 347 -1 z "},"%":{"ha":1228,"x_min":35,"x_max":1193,"o":"m 829 972 l 1065 972 l 399 0 l 163 0 l 829 972 m 946 -14 q 765 51 831 -14 q 699 238 699 115 q 765 424 699 360 q 946 489 831 489 q 1127 424 1061 489 q 1193 238 1193 360 q 1127 51 1193 115 q 946 -14 1061 -14 m 946 146 q 983 175 975 146 q 992 238 992 204 q 983 300 992 271 q 946 329 975 329 q 908 300 917 329 q 900 238 900 271 q 908 175 900 204 q 946 146 917 146 m 282 483 q 101 548 167 483 q 35 735 35 613 q 101 922 35 857 q 282 986 167 986 q 463 922 397 986 q 529 735 529 857 q 463 548 529 613 q 282 483 397 483 m 282 643 q 319 672 311 643 q 328 735 328 701 q 319 797 328 768 q 282 826 311 826 q 244 797 253 826 q 236 735 236 768 q 244 672 236 701 q 282 643 253 643 z "},"&":{"ha":963,"x_min":63,"x_max":990,"o":"m 457 -14 q 278 8 353 -14 q 155 69 203 31 q 85 163 107 108 q 63 282 63 217 q 94 430 63 374 q 165 518 126 486 q 269 569 211 554 l 269 581 l 115 749 l 115 972 l 838 972 l 838 749 l 453 749 l 453 738 l 599 564 l 599 653 l 825 653 l 825 328 l 990 143 l 833 -14 l 725 97 q 660 42 699 67 q 576 3 626 21 q 457 -14 526 -14 m 465 236 q 512 241 493 236 q 542 253 531 246 q 561 271 554 260 l 453 386 q 410 376 428 385 q 381 353 394 369 q 368 310 368 338 q 397 253 368 269 q 465 236 425 236 z "},"'":{"ha":375,"x_min":69,"x_max":306,"o":"m 69 861 l 69 972 l 306 972 l 306 861 l 278 569 l 97 569 l 69 861 z "},"(":{"ha":674,"x_min":69,"x_max":646,"o":"m 646 -347 q 422 -299 526 -347 q 239 -156 317 -250 q 115 74 161 -62 q 69 389 69 211 q 115 703 69 565 q 239 934 161 840 q 422 1076 317 1028 q 646 1125 526 1125 l 646 900 q 539 865 590 900 q 448 763 488 829 q 385 601 408 696 q 361 389 361 507 q 385 176 361 271 q 448 15 408 82 q 539 -87 488 -51 q 646 -122 590 -122 l 646 -347 l 646 -347 z "},")":{"ha":674,"x_min":28,"x_max":604,"o":"m 28 -122 q 135 -87 83 -122 q 226 15 186 -51 q 289 176 265 82 q 313 389 313 271 q 289 601 313 507 q 226 763 265 696 q 135 865 186 829 q 28 900 83 900 l 28 1125 q 251 1076 146 1125 q 435 934 357 1028 q 558 703 513 840 q 604 389 604 565 q 558 74 604 211 q 435 -156 513 -62 q 251 -299 357 -250 q 28 -347 146 -347 l 28 -122 z "},"+":{"ha":681,"x_min":42,"x_max":639,"o":"m 250 296 l 42 296 l 42 471 l 250 471 l 250 676 l 431 676 l 431 471 l 639 471 l 639 296 l 431 296 l 431 90 l 250 90 l 250 296 z "},",":{"ha":389,"x_min":42,"x_max":347,"o":"m 181 -90 q 170 -33 181 -51 q 144 -8 160 -15 q 111 4 129 0 q 78 19 93 8 q 52 55 63 31 q 42 128 42 79 q 81 230 42 194 q 186 265 119 265 q 304 224 261 265 q 347 88 347 182 q 334 -28 347 21 q 298 -111 321 -78 q 245 -161 275 -144 q 181 -178 215 -178 l 181 -90 z "},"-":{"ha":444,"x_min":42,"x_max":403,"o":"m 42 374 l 403 524 l 403 303 l 42 153 l 42 374 z "},".":{"ha":389,"x_min":42,"x_max":347,"o":"m 194 -14 q 83 24 124 -14 q 42 132 42 63 q 83 240 42 201 q 194 278 124 278 q 306 240 265 278 q 347 132 347 201 q 306 24 347 63 q 194 -14 265 -14 z "},"/":{"ha":751,"x_min":0,"x_max":751,"o":"m 529 972 l 751 972 l 222 -167 l 0 -167 l 529 972 z "},":":{"ha":403,"x_min":49,"x_max":354,"o":"m 201 -14 q 90 24 131 -14 q 49 132 49 63 q 90 240 49 201 q 201 278 131 278 q 313 240 272 278 q 354 132 354 201 q 313 24 354 63 q 201 -14 272 -14 m 201 417 q 90 455 131 417 q 49 563 49 493 q 90 670 49 632 q 201 708 131 708 q 313 670 272 708 q 354 563 354 632 q 313 455 354 493 q 201 417 272 417 z "},";":{"ha":403,"x_min":49,"x_max":354,"o":"m 188 -90 q 177 -33 188 -51 q 151 -8 167 -15 q 118 4 136 0 q 85 19 100 8 q 59 55 69 31 q 49 128 49 79 q 88 230 49 194 q 193 265 126 265 q 311 224 268 265 q 354 88 354 182 q 341 -28 354 21 q 305 -111 328 -78 q 252 -161 282 -144 q 188 -178 222 -178 l 188 -90 m 201 417 q 90 455 131 417 q 49 563 49 493 q 90 670 49 632 q 201 708 131 708 q 313 670 272 708 q 354 563 354 632 q 313 455 354 493 q 201 417 272 417 z "},"=":{"ha":736,"x_min":69,"x_max":667,"o":"m 69 325 l 667 325 l 667 150 l 69 150 l 69 325 m 69 589 l 667 589 l 667 414 l 69 414 l 69 589 z "},"?":{"ha":904,"x_min":21,"x_max":876,"o":"m 432 -14 q 326 22 365 -14 q 286 125 286 58 q 326 228 286 192 q 432 264 365 264 q 538 228 499 264 q 578 125 578 192 q 538 22 578 58 q 432 -14 499 -14 m 292 444 q 337 578 292 532 q 490 625 382 625 q 565 644 544 625 q 585 697 585 663 q 555 752 585 733 q 449 771 525 771 q 347 753 382 771 q 313 694 313 735 l 313 660 l 21 660 l 21 694 q 128 910 21 835 q 449 986 236 986 q 774 910 671 986 q 876 694 876 833 q 808 485 876 554 q 613 417 740 417 q 581 403 592 417 q 569 369 569 389 l 569 319 l 292 319 l 292 444 z "},"@":{"ha":1390,"x_min":69,"x_max":1335,"o":"m 653 -233 q 412 -189 519 -233 q 228 -64 304 -144 q 111 128 153 17 q 69 375 69 240 q 117 624 69 511 q 247 817 164 736 q 445 942 331 897 q 694 986 560 986 q 976 940 856 986 q 1176 814 1096 893 q 1295 628 1256 735 q 1335 403 1335 522 q 1315 254 1335 317 q 1260 151 1294 192 q 1180 90 1225 110 q 1085 69 1135 69 q 995 85 1032 69 q 935 119 958 100 q 889 169 907 142 l 881 169 q 835 119 863 142 q 772 85 811 100 q 674 69 732 69 q 479 150 549 69 q 410 368 410 231 q 426 491 410 436 q 469 584 442 546 q 536 642 497 622 q 619 663 575 663 q 694 648 665 663 q 739 617 724 633 q 767 571 757 596 l 779 571 l 779 653 l 1000 653 l 1000 347 q 1013 288 1000 308 q 1058 267 1026 267 q 1085 278 1075 267 q 1100 310 1094 290 q 1107 353 1106 329 q 1108 403 1108 378 q 1003 688 1108 586 q 694 789 899 789 q 524 757 599 789 q 399 669 450 725 q 322 539 349 614 q 296 376 296 464 q 315 224 296 299 q 378 92 335 150 q 489 -1 421 35 q 653 -36 557 -36 q 741 -26 703 -36 q 804 -4 779 -17 q 856 28 833 10 l 976 -128 q 893 -181 940 -157 q 792 -217 853 -200 q 653 -233 732 -233 m 700 267 q 751 293 736 267 q 765 368 765 319 q 752 442 765 414 q 700 471 739 471 q 650 442 664 471 q 636 368 636 414 q 649 295 636 324 q 700 267 663 267 z "},"A":{"ha":1131,"x_min":-14,"x_max":1144,"o":"m 372 972 l 758 972 l 1144 0 l 825 0 l 776 132 l 354 132 l 306 0 l -14 0 l 372 972 m 696 354 l 576 679 l 554 679 l 435 354 l 696 354 z "},"B":{"ha":1038,"x_min":97,"x_max":989,"o":"m 97 972 l 629 972 q 774 955 714 972 q 871 905 833 938 q 926 827 908 872 q 943 728 943 782 q 919 625 943 665 q 867 561 894 585 q 792 519 833 533 l 792 506 q 890 464 846 493 q 958 392 926 439 q 989 269 989 346 q 915 69 989 139 q 675 0 842 0 l 97 0 l 97 972 m 578 228 q 626 237 608 228 q 654 259 644 246 q 667 287 664 272 q 669 314 669 301 q 649 372 669 344 q 578 399 628 399 l 403 399 l 403 228 l 578 228 m 546 593 q 605 615 586 593 q 624 669 624 636 q 621 695 624 682 q 610 719 618 708 q 586 738 601 731 q 546 744 571 744 l 403 744 l 403 593 l 546 593 z "},"C":{"ha":1143,"x_min":69,"x_max":1081,"o":"m 582 -14 q 368 19 463 -14 q 207 117 274 53 q 105 274 140 181 q 69 486 69 367 q 105 699 69 606 q 207 856 140 792 q 368 953 274 919 q 582 986 463 986 q 786 957 694 986 q 943 875 878 928 q 1044 748 1008 822 q 1081 583 1081 674 l 764 583 q 739 654 760 622 q 685 704 721 682 q 582 726 649 726 q 490 708 526 726 q 431 657 453 689 q 399 581 408 625 q 389 486 389 536 q 399 392 389 436 q 431 315 408 347 q 490 265 453 283 q 582 246 526 246 q 685 267 649 246 q 739 317 721 289 q 764 389 760 349 l 1081 389 q 1044 224 1081 299 q 943 97 1008 150 q 786 15 878 44 q 582 -14 694 -14 z "},"D":{"ha":1111,"x_min":97,"x_max":1042,"o":"m 97 972 l 521 972 q 742 941 644 972 q 906 849 839 910 q 1007 697 972 788 q 1042 486 1042 606 q 1007 276 1042 367 q 906 124 972 185 q 742 31 839 63 q 521 0 644 0 l 97 0 l 97 972 m 521 260 q 676 322 631 260 q 722 486 722 385 q 676 650 722 588 q 521 713 631 713 l 403 713 l 403 260 l 521 260 z "},"E":{"ha":1028,"x_min":97,"x_max":958,"o":"m 97 972 l 958 972 l 958 736 l 403 736 l 403 607 l 861 607 l 861 385 l 403 385 l 403 236 l 958 236 l 958 0 l 97 0 l 97 972 z "},"F":{"ha":971,"x_min":97,"x_max":936,"o":"m 97 972 l 936 972 l 936 736 l 403 736 l 403 543 l 839 543 l 839 321 l 403 321 l 403 0 l 97 0 l 97 972 z "},"G":{"ha":1167,"x_min":69,"x_max":1083,"o":"m 568 -14 q 199 116 329 -14 q 69 485 69 246 q 105 698 69 604 q 207 856 140 792 q 368 953 274 919 q 582 986 463 986 q 742 970 672 986 q 863 928 811 954 q 951 867 915 901 q 1011 799 988 833 q 1079 611 1067 715 l 760 611 q 732 668 753 643 q 678 708 714 690 q 582 726 643 726 q 490 708 526 726 q 431 657 453 689 q 399 581 408 625 q 389 486 389 536 q 397 397 389 440 q 425 321 404 354 q 483 267 446 288 q 582 246 521 246 q 661 256 629 246 q 713 278 693 265 q 749 310 736 292 l 749 317 l 569 317 l 569 514 l 1083 514 l 1083 0 l 860 0 l 860 111 l 851 111 q 785 49 825 75 q 697 6 750 25 q 568 -14 643 -14 z "},"H":{"ha":1181,"x_min":97,"x_max":1083,"o":"m 97 972 l 403 972 l 403 639 l 778 639 l 778 972 l 1083 972 l 1083 0 l 778 0 l 778 389 l 403 389 l 403 0 l 97 0 l 97 972 z "},"I":{"ha":917,"x_min":83,"x_max":833,"o":"m 83 236 l 306 236 l 306 736 l 83 736 l 83 972 l 833 972 l 833 736 l 611 736 l 611 236 l 833 236 l 833 0 l 83 0 l 83 236 z "},"J":{"ha":942,"x_min":42,"x_max":858,"o":"m 450 -14 q 269 7 346 -14 q 142 73 192 28 q 67 189 92 118 q 42 361 42 260 l 42 413 l 347 413 l 347 361 q 350 322 347 342 q 363 285 353 301 q 394 257 374 268 q 450 246 414 246 q 506 257 486 246 q 537 285 526 268 q 550 322 547 301 q 553 361 553 342 l 553 722 l 235 722 l 235 972 l 858 972 l 858 361 q 833 189 858 260 q 758 73 808 118 q 631 7 708 28 q 450 -14 554 -14 z "},"K":{"ha":1064,"x_min":97,"x_max":1078,"o":"m 97 972 l 403 972 l 403 503 l 715 972 l 1064 972 l 721 497 l 1078 0 l 729 0 l 403 481 l 403 0 l 97 0 l 97 972 z "},"L":{"ha":944,"x_min":97,"x_max":931,"o":"m 97 972 l 403 972 l 403 250 l 931 250 l 931 0 l 97 0 l 97 972 z "},"M":{"ha":1389,"x_min":97,"x_max":1292,"o":"m 97 972 l 565 972 l 671 542 l 682 403 l 707 403 l 718 542 l 824 972 l 1292 972 l 1292 0 l 986 0 l 986 583 l 1024 722 l 993 722 l 953 583 l 864 208 l 525 208 l 436 583 l 396 722 l 365 722 l 403 583 l 403 0 l 97 0 l 97 972 z "},"N":{"ha":1208,"x_min":97,"x_max":1111,"o":"m 97 972 l 586 972 l 765 389 l 826 250 l 856 250 l 806 389 l 806 972 l 1111 972 l 1111 0 l 622 0 l 443 583 l 382 722 l 353 722 l 403 583 l 403 0 l 97 0 l 97 972 z "},"O":{"ha":1181,"x_min":69,"x_max":1111,"o":"m 590 -14 q 375 19 471 -14 q 211 117 279 53 q 106 274 143 181 q 69 486 69 367 q 106 699 69 606 q 211 856 143 792 q 375 953 279 919 q 590 986 471 986 q 805 953 708 986 q 969 856 901 919 q 1074 699 1038 792 q 1111 486 1111 606 q 1074 274 1111 367 q 969 117 1038 181 q 805 19 901 53 q 590 -14 708 -14 m 590 246 q 684 265 646 246 q 746 315 722 283 q 781 392 769 347 q 792 486 792 436 q 781 581 792 536 q 746 657 769 625 q 684 708 722 689 q 590 726 646 726 q 497 708 535 726 q 434 657 458 689 q 399 581 410 625 q 389 486 389 536 q 399 392 389 436 q 434 315 410 347 q 497 265 458 283 q 590 246 535 246 z "},"P":{"ha":1046,"x_min":97,"x_max":990,"o":"m 97 972 l 542 972 q 748 948 663 972 q 888 876 833 924 q 966 758 942 828 q 990 597 990 688 q 966 437 990 507 q 888 319 942 367 q 748 247 833 271 q 542 222 663 222 l 403 222 l 403 0 l 97 0 l 97 972 m 542 472 q 671 597 671 472 q 542 722 671 722 l 403 722 l 403 472 l 542 472 z "},"Q":{"ha":1181,"x_min":69,"x_max":1132,"o":"m 1132 -292 q 967 -274 1051 -292 q 806 -220 883 -256 q 665 -133 729 -185 q 561 -14 601 -81 q 358 26 449 -10 q 203 124 267 61 q 104 278 139 188 q 69 486 69 369 q 106 699 69 606 q 211 856 143 792 q 375 953 279 919 q 590 986 471 986 q 805 953 708 986 q 969 856 901 919 q 1074 699 1038 792 q 1111 486 1111 606 q 1076 278 1111 361 q 997 144 1040 194 q 883 54 947 86 q 1132 -24 953 -24 l 1132 -292 m 590 246 q 684 265 646 246 q 746 315 722 283 q 781 392 769 347 q 792 486 792 436 q 781 581 792 536 q 746 657 769 625 q 684 708 722 689 q 590 726 646 726 q 497 708 535 726 q 434 657 458 689 q 399 581 410 625 q 389 486 389 536 q 399 392 389 436 q 434 315 410 347 q 497 265 458 283 q 590 246 535 246 z "},"R":{"ha":1056,"x_min":97,"x_max":1056,"o":"m 97 972 l 553 972 q 749 953 669 972 q 879 895 829 935 q 951 794 929 856 q 974 647 974 733 q 949 506 974 560 q 896 419 925 451 q 819 365 861 383 l 819 354 l 1056 0 l 718 0 l 528 306 l 403 306 l 403 0 l 97 0 l 97 972 m 553 556 q 631 573 608 556 q 654 639 654 590 q 631 705 654 688 q 553 722 608 722 l 403 722 l 403 556 l 553 556 z "},"S":{"ha":1050,"x_min":49,"x_max":1001,"o":"m 525 -14 q 165 68 282 -14 q 49 300 49 150 l 49 343 l 368 343 l 368 300 q 381 260 368 276 q 414 235 393 244 q 463 222 435 225 q 525 218 492 218 q 636 236 590 218 q 682 297 682 254 q 647 356 682 338 q 536 375 613 375 q 323 396 411 375 q 178 457 235 417 q 96 555 122 497 q 69 686 69 613 q 179 904 69 822 q 511 986 289 986 q 844 910 735 986 q 953 686 953 833 l 953 663 l 633 663 l 633 686 q 606 734 633 714 q 511 754 578 754 q 417 736 444 754 q 389 689 389 718 q 426 635 389 651 q 539 619 464 619 q 757 597 668 619 q 900 531 846 574 q 978 430 954 489 q 1001 300 1001 371 q 972 171 1001 229 q 884 72 943 113 q 735 8 825 31 q 525 -14 646 -14 z "},"T":{"ha":978,"x_min":21,"x_max":957,"o":"m 336 722 l 21 722 l 21 972 l 957 972 l 957 722 l 642 722 l 642 0 l 336 0 l 336 722 z "},"U":{"ha":1139,"x_min":83,"x_max":1056,"o":"m 569 -14 q 374 9 464 -14 q 220 79 285 32 q 119 198 156 126 q 83 368 83 269 l 83 972 l 389 972 l 389 382 q 405 315 389 342 q 447 274 421 289 q 504 252 472 258 q 569 246 536 246 q 635 252 603 246 q 692 274 667 258 q 734 315 718 289 q 750 382 750 342 l 750 972 l 1056 972 l 1056 368 q 1019 198 1056 269 q 919 79 983 126 q 765 9 854 32 q 569 -14 675 -14 z "},"V":{"ha":1083,"x_min":14,"x_max":1069,"o":"m 14 972 l 333 972 l 528 292 l 556 292 l 750 972 l 1069 972 l 749 0 l 335 0 l 14 972 z "},"W":{"ha":1604,"x_min":35,"x_max":1569,"o":"m 35 972 l 350 972 l 464 310 l 481 310 l 597 972 l 1007 972 l 1124 310 l 1140 310 l 1254 972 l 1569 972 l 1360 0 l 918 0 l 810 653 l 794 653 l 685 0 l 244 0 l 35 972 z "},"X":{"ha":1018,"x_min":-7,"x_max":1025,"o":"m 307 514 l 39 972 l 379 972 l 499 713 l 519 713 l 639 972 l 979 972 l 711 514 l 1025 0 l 685 0 l 519 308 l 499 308 l 333 0 l -7 0 l 307 514 z "},"Y":{"ha":1014,"x_min":0,"x_max":1014,"o":"m 333 319 l 0 972 l 328 972 l 496 583 l 518 583 l 686 972 l 1014 972 l 681 319 l 681 0 l 333 0 l 333 319 z "},"Z":{"ha":986,"x_min":69,"x_max":917,"o":"m 69 236 l 531 725 l 531 736 l 69 736 l 69 972 l 917 972 l 917 736 l 456 247 l 456 236 l 917 236 l 917 0 l 69 0 l 69 236 z "},"_":{"ha":694,"x_min":-28,"x_max":722,"o":"m -28 -69 l 722 -69 l 722 -257 l -28 -257 l -28 -69 z "},"a":{"ha":956,"x_min":63,"x_max":907,"o":"m 340 -14 q 233 -1 283 -14 q 144 38 182 11 q 85 105 107 64 q 63 201 63 146 q 87 301 63 260 q 153 367 111 342 q 250 405 194 393 q 368 417 306 417 q 467 409 428 417 q 531 393 507 401 q 574 369 558 382 l 574 458 q 558 502 574 483 q 483 521 542 521 q 438 516 456 521 q 409 503 419 511 q 395 483 399 494 q 392 458 392 471 l 100 458 q 200 647 100 585 q 483 708 300 708 q 759 650 667 708 q 851 458 851 592 l 851 285 q 859 240 851 253 q 886 226 867 226 q 900 228 896 226 q 907 229 904 228 l 907 0 q 882 -7 897 -4 q 847 -12 868 -10 q 796 -14 826 -14 q 701 3 738 -14 q 642 42 664 21 q 601 97 617 67 l 588 97 q 544 42 575 67 q 469 3 518 21 q 340 -14 421 -14 m 457 176 q 542 185 510 176 q 574 221 574 194 q 542 256 574 247 q 457 265 510 265 q 372 256 404 265 q 340 221 340 247 q 372 185 340 193 q 457 176 404 176 z "},"b":{"ha":979,"x_min":90,"x_max":924,"o":"m 611 -14 q 501 8 544 -14 q 431 56 457 29 q 382 125 399 86 l 368 125 l 368 0 l 90 0 l 90 972 l 368 972 l 368 625 l 381 625 q 433 667 400 649 q 505 695 461 682 q 611 708 549 708 q 731 686 674 708 q 830 619 788 664 q 898 506 872 574 q 924 347 924 439 q 898 188 924 256 q 830 76 872 121 q 731 8 788 31 q 611 -14 674 -14 m 500 229 q 599 262 565 229 q 632 347 632 294 q 599 433 632 400 q 500 465 565 465 q 403 435 438 465 q 368 347 368 404 q 401 262 368 294 q 500 229 433 229 z "},"c":{"ha":933,"x_min":56,"x_max":885,"o":"m 472 -14 q 304 8 381 -14 q 173 74 228 29 q 87 188 118 119 q 56 347 56 256 q 87 507 56 439 q 173 620 118 575 q 304 687 228 665 q 472 708 381 708 q 630 690 556 708 q 761 633 704 671 q 851 538 818 596 q 885 403 885 481 l 583 403 q 542 450 572 435 q 472 465 511 465 q 381 433 414 465 q 347 347 347 400 q 381 262 347 294 q 472 229 414 229 q 542 244 511 229 q 583 292 572 260 l 885 292 q 851 156 885 214 q 761 61 818 99 q 630 5 704 24 q 472 -14 556 -14 z "},"d":{"ha":979,"x_min":56,"x_max":889,"o":"m 368 -14 q 249 8 306 -14 q 149 76 192 31 q 81 188 107 121 q 56 347 56 256 q 81 506 56 439 q 149 619 107 574 q 249 686 192 664 q 368 708 306 708 q 474 695 431 708 q 546 667 518 682 q 599 625 578 649 l 611 625 l 611 972 l 889 972 l 889 0 l 611 0 l 611 125 l 597 125 q 549 56 579 86 q 478 8 521 29 q 368 -14 435 -14 m 479 229 q 578 262 546 229 q 611 347 611 294 q 576 435 611 404 q 479 465 542 465 q 381 433 414 465 q 347 347 347 400 q 381 262 347 294 q 479 229 414 229 z "},"e":{"ha":938,"x_min":56,"x_max":889,"o":"m 472 -14 q 304 8 381 -14 q 173 74 228 29 q 87 186 118 118 q 56 347 56 254 q 87 507 56 439 q 173 620 118 575 q 304 687 228 665 q 472 708 381 708 q 640 687 564 708 q 772 620 717 665 q 858 507 826 575 q 889 347 889 439 q 888 333 889 340 q 886 319 888 326 q 885 306 885 313 l 349 306 q 378 206 350 238 q 472 174 407 174 q 525 183 504 174 q 557 204 546 193 q 578 236 571 218 l 874 236 q 817 111 863 167 q 767 65 797 88 q 696 25 738 43 q 599 -3 654 7 q 472 -14 544 -14 m 583 431 q 556 497 583 467 q 472 528 528 528 q 387 499 417 528 q 357 431 357 469 l 583 431 z "},"f":{"ha":663,"x_min":21,"x_max":683,"o":"m 147 458 l 21 458 l 21 611 l 147 667 l 147 683 q 238 913 147 839 q 522 986 328 986 q 591 981 561 986 q 642 968 621 975 q 683 951 667 961 l 683 742 q 651 756 668 750 q 616 766 636 761 q 572 771 596 771 q 465 748 504 771 q 425 672 425 725 l 425 667 l 621 667 l 621 458 l 425 458 l 425 0 l 147 0 l 147 458 z "},"g":{"ha":917,"x_min":35,"x_max":917,"o":"m 451 -292 q 281 -281 357 -292 q 149 -245 204 -271 q 65 -176 94 -219 q 35 -67 35 -132 q 56 25 35 -11 q 101 82 76 61 q 169 119 131 107 l 169 125 q 144 143 156 132 q 127 165 135 153 q 119 197 119 178 q 131 237 119 221 q 158 264 143 253 q 197 285 175 276 l 197 290 q 146 329 168 304 q 111 385 126 350 q 96 472 96 419 q 190 647 96 585 q 451 708 283 708 l 917 708 l 917 536 l 790 536 q 801 502 796 521 q 807 461 807 483 q 713 293 807 350 q 451 236 619 236 q 353 226 381 236 q 326 197 326 217 q 351 171 326 181 q 451 161 375 161 q 622 151 544 161 q 753 114 699 140 q 838 44 808 88 q 868 -67 868 0 q 838 -176 868 -132 q 753 -245 808 -219 q 622 -281 699 -271 q 451 -292 544 -292 m 451 -115 q 558 -107 521 -115 q 596 -67 596 -99 q 558 -26 596 -35 q 451 -18 521 -18 q 344 -26 382 -18 q 307 -67 307 -35 q 344 -107 307 -99 q 451 -115 382 -115 m 451 403 q 539 471 539 403 q 451 539 539 539 q 384 521 407 539 q 361 471 361 503 q 384 421 361 439 q 451 403 407 403 z "},"h":{"ha":993,"x_min":90,"x_max":910,"o":"m 90 972 l 368 972 l 368 569 l 382 569 q 432 639 399 608 q 508 687 460 665 q 632 708 557 708 q 833 638 757 708 q 910 417 910 568 l 910 0 l 632 0 l 632 335 q 599 429 632 393 q 500 465 565 465 q 401 429 433 465 q 368 335 368 393 l 368 0 l 90 0 l 90 972 z "},"i":{"ha":458,"x_min":83,"x_max":375,"o":"m 90 694 l 368 694 l 368 0 l 90 0 l 90 694 m 231 758 q 123 787 163 758 q 83 874 83 815 q 123 958 83 929 q 231 986 163 986 q 336 958 297 986 q 375 874 375 929 q 336 787 375 815 q 231 758 297 758 z "},"j":{"ha":474,"x_min":-69,"x_max":390,"o":"m 71 -292 q 14 -289 39 -292 q -31 -282 -11 -286 q -69 -272 -53 -278 l -69 -53 q -50 -61 -61 -57 q -28 -67 -40 -64 q 0 -69 -15 -69 q 77 -42 49 -69 q 106 47 106 -15 l 106 694 l 383 694 l 383 24 q 361 -117 383 -57 q 298 -215 339 -176 q 199 -273 257 -254 q 71 -292 142 -292 m 246 758 q 138 787 178 758 q 99 874 99 815 q 138 958 99 929 q 246 986 178 986 q 351 958 313 986 q 390 874 390 929 q 351 787 390 815 q 246 758 313 758 z "},"k":{"ha":919,"x_min":90,"x_max":919,"o":"m 90 972 l 368 972 l 368 371 l 589 694 l 892 694 l 642 361 l 919 0 l 615 0 l 368 350 l 368 0 l 90 0 l 90 972 z "},"l":{"ha":458,"x_min":90,"x_max":368,"o":"m 90 972 l 368 972 l 368 0 l 90 0 l 90 972 z "},"m":{"ha":1368,"x_min":90,"x_max":1285,"o":"m 90 694 l 368 694 l 368 569 l 382 569 q 425 639 397 608 q 488 687 449 665 q 590 708 528 708 q 697 687 657 708 q 761 639 738 665 q 801 569 788 608 l 813 569 q 853 639 826 608 q 917 687 876 665 q 1021 708 957 708 q 1218 638 1151 708 q 1285 417 1285 568 l 1285 0 l 1007 0 l 1007 353 q 986 435 1007 406 q 917 465 965 465 q 849 438 871 465 q 826 363 826 411 l 826 0 l 549 0 l 549 353 q 528 435 549 406 q 458 465 507 465 q 389 435 410 465 q 368 353 368 406 l 368 0 l 90 0 l 90 694 z "},"n":{"ha":993,"x_min":90,"x_max":910,"o":"m 90 694 l 368 694 l 368 569 l 382 569 q 432 639 399 608 q 508 687 460 665 q 632 708 557 708 q 833 638 757 708 q 910 417 910 568 l 910 0 l 632 0 l 632 335 q 599 429 632 393 q 500 465 565 465 q 401 429 433 465 q 368 335 368 393 l 368 0 l 90 0 l 90 694 z "},"o":{"ha":944,"x_min":56,"x_max":889,"o":"m 472 -14 q 304 8 381 -14 q 173 74 228 29 q 87 188 118 119 q 56 347 56 256 q 87 507 56 439 q 173 620 118 575 q 304 687 228 665 q 472 708 381 708 q 640 687 564 708 q 772 620 717 665 q 858 507 826 575 q 889 347 889 439 q 858 188 889 256 q 772 74 826 119 q 640 8 717 29 q 472 -14 564 -14 m 472 217 q 574 253 540 217 q 607 347 607 289 q 574 442 607 406 q 472 478 540 478 q 371 442 404 478 q 338 347 338 406 q 371 253 338 289 q 472 217 404 217 z "},"p":{"ha":979,"x_min":90,"x_max":924,"o":"m 90 694 l 368 694 l 368 569 l 382 569 q 431 639 399 608 q 501 687 457 665 q 611 708 544 708 q 731 686 674 708 q 830 619 788 664 q 898 506 872 574 q 924 347 924 439 q 898 188 924 256 q 830 76 872 121 q 731 8 788 31 q 611 -14 674 -14 q 505 -1 549 -14 q 433 28 461 13 q 381 69 400 46 l 368 69 l 368 -278 l 90 -278 l 90 694 m 500 229 q 599 262 565 229 q 632 347 632 294 q 599 433 632 400 q 500 465 565 465 q 401 433 433 465 q 368 347 368 400 q 403 260 368 290 q 500 229 438 229 z "},"q":{"ha":979,"x_min":56,"x_max":889,"o":"m 611 69 l 599 69 q 546 28 578 46 q 474 -1 518 13 q 368 -14 431 -14 q 249 8 306 -14 q 149 76 192 31 q 81 188 107 121 q 56 347 56 256 q 81 506 56 439 q 149 619 107 574 q 249 686 192 664 q 368 708 306 708 q 478 687 435 708 q 549 639 521 665 q 597 569 579 608 l 611 569 l 611 694 l 889 694 l 889 -278 l 611 -278 l 611 69 m 479 229 q 576 260 542 229 q 611 347 611 290 q 578 433 611 400 q 479 465 546 465 q 381 433 414 465 q 347 347 347 400 q 381 262 347 294 q 479 229 414 229 z "},"r":{"ha":729,"x_min":90,"x_max":674,"o":"m 90 694 l 368 694 l 368 569 l 382 569 q 429 639 397 608 q 502 687 457 665 q 618 708 547 708 q 633 708 625 708 q 651 706 642 707 q 674 704 661 704 l 674 396 q 638 410 658 404 q 594 419 619 415 q 535 424 568 424 q 406 382 444 424 q 368 278 368 340 l 368 0 l 90 0 l 90 694 z "},"s":{"ha":867,"x_min":42,"x_max":825,"o":"m 432 -14 q 139 39 236 -14 q 42 222 42 92 l 42 244 l 322 244 l 322 222 q 347 174 322 188 q 432 161 371 161 q 519 174 494 161 q 544 211 544 186 q 540 233 544 224 q 523 250 536 243 q 485 260 510 257 q 422 264 461 264 q 144 320 233 264 q 56 493 56 376 q 147 653 56 597 q 418 708 238 708 q 785 489 785 708 l 785 475 l 504 475 l 504 489 q 488 521 504 508 q 418 533 471 533 q 353 521 369 533 q 336 489 336 508 q 359 456 336 465 q 446 446 382 446 q 736 388 647 446 q 825 217 825 331 q 728 40 825 94 q 432 -14 631 -14 z "},"t":{"ha":672,"x_min":35,"x_max":603,"o":"m 476 -14 q 208 53 293 -14 q 122 278 122 121 l 122 486 l 35 486 l 35 618 l 261 833 l 400 833 l 400 694 l 589 694 l 589 486 l 400 486 l 400 315 q 433 229 400 250 q 519 208 467 208 q 553 211 538 208 q 579 217 568 214 q 603 226 593 221 l 603 10 q 568 -3 588 3 q 528 -10 551 -7 q 476 -14 506 -14 z "},"u":{"ha":1000,"x_min":90,"x_max":910,"o":"m 368 -14 q 167 56 243 -14 q 90 278 90 126 l 90 694 l 368 694 l 368 360 q 401 265 368 301 q 500 229 435 229 q 599 265 567 229 q 632 360 632 301 l 632 694 l 910 694 l 910 0 l 632 0 l 632 125 l 618 125 q 568 56 601 86 q 492 8 540 29 q 368 -14 443 -14 z "},"v":{"ha":869,"x_min":0,"x_max":869,"o":"m 0 694 l 286 694 l 428 222 l 442 222 l 583 694 l 869 694 l 638 0 l 232 0 l 0 694 z "},"w":{"ha":1319,"x_min":14,"x_max":1306,"o":"m 14 694 l 293 694 l 378 232 l 389 232 l 500 694 l 818 694 l 931 232 l 940 232 l 1026 694 l 1306 694 l 1133 0 l 772 0 l 663 431 l 656 431 l 544 0 l 186 0 l 14 694 z "},"x":{"ha":856,"x_min":-7,"x_max":863,"o":"m 225 367 l 26 694 l 326 694 l 426 485 l 429 485 l 529 694 l 829 694 l 631 367 l 863 0 l 556 0 l 431 228 l 425 228 l 300 0 l -7 0 l 225 367 z "},"y":{"ha":864,"x_min":-14,"x_max":878,"o":"m 213 -292 q 166 -289 188 -292 q 128 -283 144 -286 q 92 -275 108 -279 l 92 -36 q 118 -46 103 -42 q 151 -53 132 -50 q 194 -56 169 -56 q 276 -34 243 -56 q 326 32 310 -12 l -14 694 l 272 694 l 424 375 l 433 215 l 453 215 l 471 375 l 592 694 l 878 694 l 596 28 q 531 -103 565 -44 q 453 -204 497 -162 q 351 -269 410 -246 q 213 -292 293 -292 z "},"z":{"ha":868,"x_min":69,"x_max":806,"o":"m 69 222 l 417 467 l 417 472 l 83 472 l 83 694 l 792 694 l 792 472 l 444 225 l 444 222 l 806 222 l 806 0 l 69 0 l 69 222 z "},"«":{"ha":899,"x_min":35,"x_max":850,"o":"m 35 347 l 214 604 l 471 604 l 281 350 l 281 344 l 471 90 l 214 90 l 35 347 m 414 347 l 593 604 l 850 604 l 660 350 l 660 344 l 850 90 l 593 90 l 414 347 z "},"»":{"ha":899,"x_min":49,"x_max":864,"o":"m 239 344 l 239 350 l 49 604 l 306 604 l 485 347 l 306 90 l 49 90 l 239 344 m 618 344 l 618 350 l 428 604 l 685 604 l 864 347 l 685 90 l 428 90 l 618 344 z "},"Ё":{"ha":1028,"x_min":97,"x_max":958,"o":"m 97 972 l 958 972 l 958 736 l 403 736 l 403 607 l 861 607 l 861 385 l 403 385 l 403 236 l 958 236 l 958 0 l 97 0 l 97 972 m 376 1069 q 291 1092 324 1069 q 258 1169 258 1115 q 291 1245 258 1222 q 376 1268 324 1268 q 462 1245 429 1268 q 494 1169 494 1222 q 462 1092 494 1115 q 376 1069 429 1069 m 696 1069 q 610 1092 643 1069 q 578 1169 578 1115 q 610 1245 578 1222 q 696 1268 643 1268 q 781 1245 749 1268 q 814 1169 814 1222 q 781 1092 814 1115 q 696 1069 749 1069 z "},"А":{"ha":1131,"x_min":-14,"x_max":1144,"o":"m 372 972 l 758 972 l 1144 0 l 825 0 l 776 132 l 354 132 l 306 0 l -14 0 l 372 972 m 696 354 l 576 679 l 554 679 l 435 354 l 696 354 z "},"Б":{"ha":1039,"x_min":97,"x_max":990,"o":"m 97 972 l 896 972 l 896 736 l 403 736 l 403 625 l 590 625 q 774 606 697 625 q 898 549 850 588 q 968 453 946 511 q 990 319 990 396 q 896 79 990 158 q 590 0 801 0 l 97 0 l 97 972 m 590 236 q 649 256 628 236 q 671 319 671 275 q 649 383 671 364 q 590 403 626 403 l 403 403 l 403 236 l 590 236 z "},"В":{"ha":1038,"x_min":97,"x_max":989,"o":"m 97 972 l 629 972 q 774 955 714 972 q 871 905 833 938 q 926 827 908 872 q 943 728 943 782 q 919 625 943 665 q 867 561 894 585 q 792 519 833 533 l 792 506 q 890 464 846 493 q 958 392 926 439 q 989 269 989 346 q 915 69 989 139 q 675 0 842 0 l 97 0 l 97 972 m 578 228 q 626 237 608 228 q 654 259 644 246 q 667 287 664 272 q 669 314 669 301 q 649 372 669 344 q 578 399 628 399 l 403 399 l 403 228 l 578 228 m 546 593 q 605 615 586 593 q 624 669 624 636 q 621 695 624 682 q 610 719 618 708 q 586 738 601 731 q 546 744 571 744 l 403 744 l 403 593 l 546 593 z "},"Г":{"ha":924,"x_min":97,"x_max":896,"o":"m 97 972 l 896 972 l 896 722 l 403 722 l 403 0 l 97 0 l 97 972 z "},"Д":{"ha":1196,"x_min":14,"x_max":1168,"o":"m 14 236 l 64 236 q 110 251 93 236 q 138 291 128 267 q 154 344 149 315 q 163 403 160 374 l 221 972 l 1036 972 l 1036 236 l 1168 236 l 1168 -208 l 863 -208 l 863 0 l 306 0 l 306 -208 l 14 -208 l 14 236 m 731 236 l 731 736 l 504 736 l 467 394 q 447 317 460 346 q 421 274 435 289 q 388 250 406 256 l 388 236 l 731 236 z "},"Е":{"ha":1028,"x_min":97,"x_max":958,"o":"m 97 972 l 958 972 l 958 736 l 403 736 l 403 607 l 861 607 l 861 385 l 403 385 l 403 236 l 958 236 l 958 0 l 97 0 l 97 972 z "},"Ж":{"ha":1531,"x_min":-7,"x_max":1538,"o":"m 297 497 l 7 972 l 356 972 l 613 503 l 613 972 l 918 972 l 918 503 l 1175 972 l 1524 972 l 1233 497 l 1538 0 l 1189 0 l 918 481 l 918 0 l 613 0 l 613 481 l 342 0 l -7 0 l 297 497 z "},"З":{"ha":1003,"x_min":49,"x_max":954,"o":"m 501 -14 q 281 8 368 -14 q 142 72 193 31 q 69 171 90 113 q 49 300 49 229 l 49 347 l 368 347 l 368 300 q 374 273 368 288 q 394 245 379 258 q 435 223 408 232 q 501 214 461 214 q 568 224 542 214 q 609 247 594 233 q 629 276 624 261 q 635 304 635 292 q 612 367 635 342 q 528 393 589 393 l 410 393 l 410 599 l 511 599 q 582 622 561 599 q 603 679 603 646 q 578 735 603 713 q 493 758 554 758 q 441 750 463 758 q 406 729 419 742 q 385 703 392 717 q 379 676 379 689 l 379 643 l 60 643 l 60 676 q 83 804 60 747 q 159 901 107 861 q 294 964 211 942 q 493 986 376 986 q 692 967 610 986 q 824 913 774 947 q 899 833 875 879 q 922 732 922 786 q 897 621 922 661 q 839 557 871 581 q 757 519 803 531 l 757 506 q 856 468 811 496 q 923 397 892 444 q 954 267 954 349 q 838 51 954 115 q 501 -14 721 -14 z "},"И":{"ha":1179,"x_min":97,"x_max":1082,"o":"m 97 972 l 403 972 l 403 389 l 353 250 l 382 250 l 442 389 l 628 972 l 1082 972 l 1082 0 l 776 0 l 776 583 l 826 722 l 797 722 l 738 583 l 551 0 l 97 0 l 97 972 z "},"Й":{"ha":1179,"x_min":97,"x_max":1082,"o":"m 97 972 l 403 972 l 403 389 l 353 250 l 382 250 l 442 389 l 628 972 l 1082 972 l 1082 0 l 776 0 l 776 583 l 826 722 l 797 722 l 738 583 l 551 0 l 97 0 l 97 972 m 601 1083 q 388 1137 456 1083 q 321 1317 321 1190 l 321 1328 l 522 1328 l 522 1317 q 524 1293 522 1304 q 534 1274 526 1282 q 558 1260 542 1265 q 601 1256 574 1256 q 645 1260 629 1256 q 669 1274 661 1265 q 678 1293 676 1282 q 681 1317 681 1304 l 681 1328 l 882 1328 l 882 1317 q 815 1137 882 1190 q 601 1083 747 1083 z "},"К":{"ha":1064,"x_min":97,"x_max":1078,"o":"m 97 972 l 403 972 l 403 503 l 715 972 l 1064 972 l 721 497 l 1078 0 l 729 0 l 403 481 l 403 0 l 97 0 l 97 972 z "},"Л":{"ha":1151,"x_min":14,"x_max":1054,"o":"m 153 -14 q 51 -7 90 -14 q 14 0 31 -4 l 14 288 q 29 286 21 286 q 46 285 36 285 q 67 285 56 285 q 135 308 110 285 q 167 389 161 331 l 228 972 l 1054 972 l 1054 0 l 749 0 l 749 722 l 515 722 l 467 306 q 438 169 457 228 q 383 69 419 110 q 292 7 347 28 q 153 -14 236 -14 z "},"М":{"ha":1389,"x_min":97,"x_max":1292,"o":"m 97 972 l 565 972 l 671 542 l 682 403 l 707 403 l 718 542 l 824 972 l 1292 972 l 1292 0 l 986 0 l 986 583 l 1024 722 l 993 722 l 953 583 l 864 208 l 525 208 l 436 583 l 396 722 l 365 722 l 403 583 l 403 0 l 97 0 l 97 972 z "},"Н":{"ha":1181,"x_min":97,"x_max":1083,"o":"m 97 972 l 403 972 l 403 639 l 778 639 l 778 972 l 1083 972 l 1083 0 l 778 0 l 778 389 l 403 389 l 403 0 l 97 0 l 97 972 z "},"О":{"ha":1181,"x_min":69,"x_max":1111,"o":"m 590 -14 q 375 19 471 -14 q 211 117 279 53 q 106 274 143 181 q 69 486 69 367 q 106 699 69 606 q 211 856 143 792 q 375 953 279 919 q 590 986 471 986 q 805 953 708 986 q 969 856 901 919 q 1074 699 1038 792 q 1111 486 1111 606 q 1074 274 1111 367 q 969 117 1038 181 q 805 19 901 53 q 590 -14 708 -14 m 590 246 q 684 265 646 246 q 746 315 722 283 q 781 392 769 347 q 792 486 792 436 q 781 581 792 536 q 746 657 769 625 q 684 708 722 689 q 590 726 646 726 q 497 708 535 726 q 434 657 458 689 q 399 581 410 625 q 389 486 389 536 q 399 392 389 436 q 434 315 410 347 q 497 265 458 283 q 590 246 535 246 z "},"П":{"ha":1160,"x_min":97,"x_max":1063,"o":"m 97 972 l 1063 972 l 1063 0 l 757 0 l 757 722 l 403 722 l 403 0 l 97 0 l 97 972 z "},"Р":{"ha":1046,"x_min":97,"x_max":990,"o":"m 97 972 l 542 972 q 748 948 663 972 q 888 876 833 924 q 966 758 942 828 q 990 597 990 688 q 966 437 990 507 q 888 319 942 367 q 748 247 833 271 q 542 222 663 222 l 403 222 l 403 0 l 97 0 l 97 972 m 542 472 q 671 597 671 472 q 542 722 671 722 l 403 722 l 403 472 l 542 472 z "},"С":{"ha":1143,"x_min":69,"x_max":1081,"o":"m 582 -14 q 368 19 463 -14 q 207 117 274 53 q 105 274 140 181 q 69 486 69 367 q 105 699 69 606 q 207 856 140 792 q 368 953 274 919 q 582 986 463 986 q 786 957 694 986 q 943 875 878 928 q 1044 748 1008 822 q 1081 583 1081 674 l 764 583 q 739 654 760 622 q 685 704 721 682 q 582 726 649 726 q 490 708 526 726 q 431 657 453 689 q 399 581 408 625 q 389 486 389 536 q 399 392 389 436 q 431 315 408 347 q 490 265 453 283 q 582 246 526 246 q 685 267 649 246 q 739 317 721 289 q 764 389 760 349 l 1081 389 q 1044 224 1081 299 q 943 97 1008 150 q 786 15 878 44 q 582 -14 694 -14 z "},"Т":{"ha":978,"x_min":21,"x_max":957,"o":"m 336 722 l 21 722 l 21 972 l 957 972 l 957 722 l 642 722 l 642 0 l 336 0 l 336 722 z "},"У":{"ha":1033,"x_min":-14,"x_max":1047,"o":"m 161 236 l 276 236 q 350 246 322 236 q 397 289 378 256 l -14 972 l 317 972 l 504 632 l 521 465 l 550 465 l 567 632 l 735 972 l 1047 972 l 706 292 q 631 161 668 217 q 547 70 593 106 q 438 17 500 35 q 286 0 375 0 l 161 0 l 161 236 z "},"Ф":{"ha":1389,"x_min":49,"x_max":1340,"o":"m 542 83 q 337 109 428 85 q 182 182 246 133 q 83 306 118 231 q 49 486 49 382 q 83 666 49 590 q 182 790 118 742 q 337 863 246 839 q 542 889 428 888 l 542 986 l 847 986 l 847 889 q 1052 863 961 888 q 1207 790 1143 839 q 1306 666 1271 742 q 1340 486 1340 590 q 1306 306 1340 382 q 1207 182 1271 231 q 1052 109 1143 133 q 847 83 961 85 l 847 -14 l 542 -14 l 542 83 m 542 639 q 410 598 451 639 q 368 486 368 557 q 410 374 368 415 q 542 333 451 333 l 542 639 m 847 333 q 979 374 938 333 q 1021 486 1021 415 q 979 598 1021 557 q 847 639 938 639 l 847 333 z "},"Х":{"ha":1018,"x_min":-7,"x_max":1025,"o":"m 307 514 l 39 972 l 379 972 l 499 713 l 519 713 l 639 972 l 979 972 l 711 514 l 1025 0 l 685 0 l 519 308 l 499 308 l 333 0 l -7 0 l 307 514 z "},"Ц":{"ha":1167,"x_min":97,"x_max":1139,"o":"m 833 0 l 97 0 l 97 972 l 403 972 l 403 250 l 701 250 l 701 972 l 1007 972 l 1007 250 l 1139 250 l 1139 -208 l 833 -208 l 833 0 z "},"Ч":{"ha":1078,"x_min":83,"x_max":981,"o":"m 675 263 l 532 263 q 326 287 411 263 q 186 359 240 311 q 108 477 132 407 q 83 638 83 547 l 83 972 l 389 972 l 389 638 q 427 539 389 565 q 532 513 465 513 l 675 513 l 675 972 l 981 972 l 981 0 l 675 0 l 675 263 z "},"Ш":{"ha":1474,"x_min":97,"x_max":1376,"o":"m 97 972 l 403 972 l 403 250 l 583 250 l 583 972 l 890 972 l 890 250 l 1071 250 l 1071 972 l 1376 972 l 1376 0 l 97 0 l 97 972 z "},"Щ":{"ha":1535,"x_min":97,"x_max":1507,"o":"m 1201 0 l 97 0 l 97 972 l 403 972 l 403 250 l 583 250 l 583 972 l 890 972 l 890 250 l 1069 250 l 1069 972 l 1376 972 l 1376 250 l 1507 250 l 1507 -208 l 1201 -208 l 1201 0 z "},"Ъ":{"ha":1121,"x_min":0,"x_max":1079,"o":"m 222 722 l 0 722 l 0 972 l 528 972 l 528 694 l 642 694 q 847 672 763 694 q 982 605 931 649 q 1056 497 1033 561 q 1079 347 1079 432 q 1056 198 1079 263 q 982 90 1033 133 q 847 23 931 46 q 642 0 763 0 l 222 0 l 222 722 m 642 250 q 734 272 708 250 q 760 347 760 293 q 734 423 760 401 q 642 444 708 444 l 528 444 l 528 250 l 642 250 z "},"Ы":{"ha":1422,"x_min":97,"x_max":1325,"o":"m 97 972 l 403 972 l 403 694 l 481 694 q 685 672 601 694 q 821 605 769 649 q 895 497 872 561 q 918 347 918 432 q 895 198 918 263 q 821 90 872 133 q 685 23 769 46 q 481 0 601 0 l 97 0 l 97 972 m 481 250 q 573 272 547 250 q 599 347 599 293 q 573 423 599 401 q 481 444 547 444 l 403 444 l 403 250 l 481 250 m 1019 972 l 1325 972 l 1325 0 l 1019 0 l 1019 972 z "},"Ь":{"ha":996,"x_min":97,"x_max":954,"o":"m 97 972 l 403 972 l 403 694 l 517 694 q 722 672 638 694 q 857 605 806 649 q 931 497 908 561 q 954 347 954 432 q 931 198 954 263 q 857 90 908 133 q 722 23 806 46 q 517 0 638 0 l 97 0 l 97 972 m 517 250 q 609 272 583 250 q 635 347 635 293 q 609 423 635 401 q 517 444 583 444 l 403 444 l 403 250 l 517 250 z "},"Э":{"ha":1129,"x_min":49,"x_max":1060,"o":"m 547 -14 q 343 16 435 -14 q 186 99 251 46 q 85 226 121 153 q 49 389 49 300 l 365 389 q 389 317 368 349 q 442 267 406 289 q 547 246 479 246 q 661 267 622 246 q 717 317 700 289 q 738 389 736 349 l 468 389 l 468 594 l 732 594 q 710 660 729 631 q 655 706 692 685 q 547 726 618 726 q 443 704 479 726 q 389 654 407 682 q 365 583 368 622 l 49 583 q 85 746 49 672 q 186 873 121 819 q 343 956 251 926 q 547 986 435 986 q 760 953 665 986 q 922 856 856 919 q 1024 698 989 792 q 1060 485 1060 604 q 1024 273 1060 365 q 922 117 989 181 q 760 19 856 53 q 547 -14 665 -14 z "},"Ю":{"ha":1499,"x_min":97,"x_max":1429,"o":"m 950 -14 q 807 3 869 -14 q 697 47 744 19 q 614 109 649 74 q 556 181 579 144 q 482 375 500 267 l 403 375 l 403 0 l 97 0 l 97 972 l 403 972 l 403 625 l 489 625 q 567 806 511 726 q 624 872 590 839 q 706 930 658 904 q 813 971 753 956 q 950 986 874 986 q 1153 949 1064 986 q 1303 844 1242 911 q 1397 686 1364 778 q 1429 485 1429 594 q 1397 285 1429 376 q 1303 127 1364 193 q 1153 24 1242 61 q 950 -14 1064 -14 m 950 246 q 1031 267 1000 246 q 1080 322 1063 288 q 1103 399 1097 356 q 1110 486 1110 442 q 1101 578 1110 535 q 1074 655 1093 622 q 1025 707 1056 688 q 950 726 994 726 q 875 707 906 726 q 826 655 844 688 q 799 578 807 622 q 790 486 790 535 q 797 399 790 442 q 820 322 803 356 q 869 267 838 288 q 950 246 900 246 z "},"Я":{"ha":1039,"x_min":42,"x_max":942,"o":"m 231 326 l 231 338 q 153 397 188 358 q 100 488 124 431 q 76 633 76 544 q 175 888 76 804 q 497 972 274 972 l 942 972 l 942 0 l 636 0 l 636 278 l 518 278 l 371 0 l 42 0 l 231 326 m 636 528 l 636 722 l 497 722 q 421 701 446 722 q 396 625 396 681 q 421 549 396 569 q 497 528 446 528 l 636 528 z "},"а":{"ha":956,"x_min":63,"x_max":907,"o":"m 340 -14 q 233 -1 283 -14 q 144 38 182 11 q 85 105 107 64 q 63 201 63 146 q 87 301 63 260 q 153 367 111 342 q 250 405 194 393 q 368 417 306 417 q 467 409 428 417 q 531 393 507 401 q 574 369 558 382 l 574 458 q 558 502 574 483 q 483 521 542 521 q 438 516 456 521 q 409 503 419 511 q 395 483 399 494 q 392 458 392 471 l 100 458 q 200 647 100 585 q 483 708 300 708 q 759 650 667 708 q 851 458 851 592 l 851 285 q 859 240 851 253 q 886 226 867 226 q 900 228 896 226 q 907 229 904 228 l 907 0 q 882 -7 897 -4 q 847 -12 868 -10 q 796 -14 826 -14 q 701 3 738 -14 q 642 42 664 21 q 601 97 617 67 l 588 97 q 544 42 575 67 q 469 3 518 21 q 340 -14 421 -14 m 457 176 q 542 185 510 176 q 574 221 574 194 q 542 256 574 247 q 457 265 510 265 q 372 256 404 265 q 340 221 340 247 q 372 185 340 193 q 457 176 404 176 z "},"б":{"ha":938,"x_min":56,"x_max":889,"o":"m 472 -14 q 310 10 386 -14 q 178 87 235 33 q 88 225 121 140 q 56 432 56 310 q 78 624 56 536 q 148 774 100 711 q 273 874 196 838 q 460 910 350 910 q 508 915 490 910 q 536 928 526 919 q 549 948 546 936 q 551 972 551 960 l 843 972 q 838 848 850 901 q 789 759 826 794 q 683 706 751 724 q 508 688 614 688 q 390 655 431 688 q 349 569 349 622 l 360 569 q 399 593 374 582 q 458 610 421 603 q 553 618 494 618 q 801 540 714 618 q 889 306 889 463 q 858 168 889 228 q 772 68 826 108 q 640 7 717 28 q 472 -14 564 -14 m 475 208 q 567 233 533 208 q 601 306 601 258 q 567 378 601 353 q 475 403 533 403 q 383 378 417 403 q 349 306 349 353 q 383 233 349 258 q 475 208 417 208 z "},"в":{"ha":901,"x_min":90,"x_max":853,"o":"m 90 694 l 596 694 q 769 646 718 694 q 819 519 819 597 q 801 443 819 472 q 758 399 782 414 q 697 371 732 379 l 697 361 q 775 333 740 354 q 828 283 804 315 q 853 193 853 250 q 800 49 853 99 q 628 0 747 0 l 90 0 l 90 694 m 503 176 q 554 190 540 176 q 568 226 568 204 q 554 262 568 247 q 503 276 540 276 l 368 276 l 368 176 l 503 176 m 481 432 q 536 475 536 432 q 481 518 536 518 l 368 518 l 368 432 l 481 432 z "},"г":{"ha":747,"x_min":92,"x_max":719,"o":"m 92 694 l 719 694 l 719 458 l 369 458 l 369 0 l 92 0 l 92 694 z "},"д":{"ha":965,"x_min":14,"x_max":938,"o":"m 14 208 l 46 208 q 85 215 71 208 q 108 237 100 222 q 121 272 117 251 q 129 319 125 292 l 174 694 l 849 694 l 849 208 l 938 208 l 938 -146 l 660 -146 l 660 0 l 292 0 l 292 -146 l 14 -146 l 14 208 m 571 208 l 571 486 l 424 486 l 397 292 q 386 250 394 265 q 369 227 378 235 q 354 217 361 219 q 347 215 347 215 l 346 208 l 571 208 z "},"е":{"ha":938,"x_min":56,"x_max":889,"o":"m 472 -14 q 304 8 381 -14 q 173 74 228 29 q 87 186 118 118 q 56 347 56 254 q 87 507 56 439 q 173 620 118 575 q 304 687 228 665 q 472 708 381 708 q 640 687 564 708 q 772 620 717 665 q 858 507 826 575 q 889 347 889 439 q 888 333 889 340 q 886 319 888 326 q 885 306 885 313 l 349 306 q 378 206 350 238 q 472 174 407 174 q 525 183 504 174 q 557 204 546 193 q 578 236 571 218 l 874 236 q 817 111 863 167 q 767 65 797 88 q 696 25 738 43 q 599 -3 654 7 q 472 -14 544 -14 m 583 431 q 556 497 583 467 q 472 528 528 528 q 387 499 417 528 q 357 431 357 469 l 583 431 z "},"ж":{"ha":1328,"x_min":0,"x_max":1328,"o":"m 254 357 l 26 694 l 329 694 l 525 364 l 525 694 l 803 694 l 803 364 l 999 694 l 1301 694 l 1074 357 l 1328 0 l 1024 0 l 803 343 l 803 0 l 525 0 l 525 343 l 304 0 l 0 0 l 254 357 z "},"з":{"ha":865,"x_min":42,"x_max":817,"o":"m 425 -14 q 42 213 42 -14 l 42 246 l 319 246 l 319 228 q 343 188 319 199 q 425 176 367 176 q 508 188 485 176 q 532 225 532 199 q 510 264 532 254 q 435 274 488 274 l 351 274 l 351 435 l 435 435 q 492 444 475 435 q 510 476 510 453 q 491 507 510 496 q 419 518 472 518 q 328 474 328 518 l 328 461 l 50 461 l 50 485 q 76 583 50 540 q 151 653 103 625 q 267 694 199 681 q 419 708 335 708 q 573 697 504 708 q 691 662 642 685 q 767 604 740 639 q 794 525 794 569 q 769 440 794 469 q 714 394 744 410 q 635 372 678 378 l 635 363 q 725 338 685 357 q 788 286 760 321 q 817 189 817 251 q 785 90 817 129 q 700 27 754 50 q 575 -5 646 4 q 425 -14 504 -14 z "},"и":{"ha":1007,"x_min":90,"x_max":917,"o":"m 90 694 l 368 694 l 368 347 l 350 264 l 364 264 l 397 347 l 586 694 l 917 694 l 917 0 l 639 0 l 639 347 l 657 431 l 643 431 l 610 347 l 421 0 l 90 0 l 90 694 z "},"й":{"ha":1007,"x_min":90,"x_max":917,"o":"m 90 694 l 368 694 l 368 347 l 350 264 l 364 264 l 397 347 l 586 694 l 917 694 l 917 0 l 639 0 l 639 347 l 657 431 l 643 431 l 610 347 l 421 0 l 90 0 l 90 694 m 497 785 q 313 833 379 785 q 247 983 247 881 l 247 986 l 425 986 l 425 983 q 441 947 425 963 q 497 931 457 931 q 553 947 538 931 q 569 983 569 963 l 569 986 l 747 986 l 747 983 q 681 833 747 881 q 497 785 615 785 z "},"к":{"ha":919,"x_min":90,"x_max":919,"o":"m 90 694 l 368 694 l 368 364 l 589 694 l 892 694 l 643 358 l 919 0 l 614 0 l 368 343 l 368 0 l 90 0 l 90 694 z "},"л":{"ha":932,"x_min":14,"x_max":842,"o":"m 125 -14 q 46 -7 78 -14 q 14 0 28 -4 l 14 233 q 26 231 21 232 q 39 229 32 229 q 54 229 46 229 q 105 251 92 229 q 125 319 118 274 l 165 694 l 842 694 l 842 0 l 564 0 l 564 458 l 411 458 l 386 229 q 125 -14 361 -14 z "},"м":{"ha":1153,"x_min":90,"x_max":1063,"o":"m 90 694 l 457 694 l 558 417 l 568 354 l 585 354 l 594 417 l 696 694 l 1063 694 l 1063 0 l 785 0 l 785 347 l 794 417 l 778 417 l 753 347 l 667 146 l 486 146 l 400 347 l 375 417 l 358 417 l 368 347 l 368 0 l 90 0 l 90 694 z "},"н":{"ha":972,"x_min":90,"x_max":882,"o":"m 90 694 l 368 694 l 368 465 l 604 465 l 604 694 l 882 694 l 882 0 l 604 0 l 604 229 l 368 229 l 368 0 l 90 0 l 90 694 z "},"о":{"ha":944,"x_min":56,"x_max":889,"o":"m 472 -14 q 304 8 381 -14 q 173 74 228 29 q 87 188 118 119 q 56 347 56 256 q 87 507 56 439 q 173 620 118 575 q 304 687 228 665 q 472 708 381 708 q 640 687 564 708 q 772 620 717 665 q 858 507 826 575 q 889 347 889 439 q 858 188 889 256 q 772 74 826 119 q 640 8 717 29 q 472 -14 564 -14 m 472 217 q 574 253 540 217 q 607 347 607 289 q 574 442 607 406 q 472 478 540 478 q 371 442 404 478 q 338 347 338 406 q 371 253 338 289 q 472 217 404 217 z "},"п":{"ha":986,"x_min":90,"x_max":896,"o":"m 90 694 l 896 694 l 896 0 l 618 0 l 618 458 l 368 458 l 368 0 l 90 0 l 90 694 z "},"р":{"ha":979,"x_min":90,"x_max":924,"o":"m 90 694 l 368 694 l 368 569 l 382 569 q 431 639 399 608 q 501 687 457 665 q 611 708 544 708 q 731 686 674 708 q 830 619 788 664 q 898 506 872 574 q 924 347 924 439 q 898 188 924 256 q 830 76 872 121 q 731 8 788 31 q 611 -14 674 -14 q 505 -1 549 -14 q 433 28 461 13 q 381 69 400 46 l 368 69 l 368 -278 l 90 -278 l 90 694 m 500 229 q 599 262 565 229 q 632 347 632 294 q 599 433 632 400 q 500 465 565 465 q 401 433 433 465 q 368 347 368 400 q 403 260 368 290 q 500 229 438 229 z "},"с":{"ha":933,"x_min":56,"x_max":885,"o":"m 472 -14 q 304 8 381 -14 q 173 74 228 29 q 87 188 118 119 q 56 347 56 256 q 87 507 56 439 q 173 620 118 575 q 304 687 228 665 q 472 708 381 708 q 630 690 556 708 q 761 633 704 671 q 851 538 818 596 q 885 403 885 481 l 583 403 q 542 450 572 435 q 472 465 511 465 q 381 433 414 465 q 347 347 347 400 q 381 262 347 294 q 472 229 414 229 q 542 244 511 229 q 583 292 572 260 l 885 292 q 851 156 885 214 q 761 61 818 99 q 630 5 704 24 q 472 -14 556 -14 z "},"т":{"ha":825,"x_min":28,"x_max":797,"o":"m 274 458 l 28 458 l 28 694 l 797 694 l 797 458 l 551 458 l 551 0 l 274 0 l 274 458 z "},"у":{"ha":864,"x_min":-14,"x_max":878,"o":"m 213 -292 q 166 -289 188 -292 q 128 -283 144 -286 q 92 -275 108 -279 l 92 -36 q 118 -46 103 -42 q 151 -53 132 -50 q 194 -56 169 -56 q 276 -34 243 -56 q 326 32 310 -12 l -14 694 l 272 694 l 424 375 l 433 215 l 453 215 l 471 375 l 592 694 l 878 694 l 596 28 q 531 -103 565 -44 q 453 -204 497 -162 q 351 -269 410 -246 q 213 -292 293 -292 z "},"ф":{"ha":1186,"x_min":56,"x_max":1131,"o":"m 454 -14 q 289 12 363 -11 q 163 79 215 35 q 83 190 111 124 q 56 347 56 257 q 83 503 56 436 q 163 615 111 569 q 289 683 215 660 q 454 708 363 706 l 454 972 l 732 972 l 732 708 q 897 683 824 706 q 1023 615 971 660 q 1103 503 1075 569 q 1131 347 1131 436 q 1103 190 1131 257 q 1023 79 1075 124 q 897 12 971 35 q 732 -14 824 -11 l 732 -278 l 454 -278 l 454 -14 m 456 517 q 363 465 389 514 q 336 347 336 417 q 363 229 336 278 q 456 178 389 181 l 456 517 m 731 178 q 824 229 797 181 q 850 347 850 278 q 824 465 850 417 q 731 517 797 514 l 731 178 z "},"х":{"ha":856,"x_min":-7,"x_max":863,"o":"m 225 367 l 26 694 l 326 694 l 426 485 l 429 485 l 529 694 l 829 694 l 631 367 l 863 0 l 556 0 l 431 228 l 425 228 l 300 0 l -7 0 l 225 367 z "},"ц":{"ha":969,"x_min":90,"x_max":942,"o":"m 664 0 l 90 0 l 90 694 l 368 694 l 368 236 l 575 236 l 575 694 l 853 694 l 853 236 l 942 236 l 942 -146 l 664 -146 l 664 0 z "},"ч":{"ha":925,"x_min":76,"x_max":835,"o":"m 557 182 l 410 182 q 258 201 321 182 q 154 260 194 219 q 95 363 114 300 q 76 515 76 426 l 76 694 l 354 694 l 354 515 q 376 440 354 463 q 451 418 399 418 l 557 418 l 557 694 l 835 694 l 835 0 l 557 0 l 557 182 z "},"ш":{"ha":1236,"x_min":90,"x_max":1146,"o":"m 90 694 l 368 694 l 368 236 l 479 236 l 479 694 l 757 694 l 757 236 l 868 236 l 868 694 l 1146 694 l 1146 0 l 90 0 l 90 694 z "},"щ":{"ha":1263,"x_min":90,"x_max":1235,"o":"m 957 0 l 90 0 l 90 694 l 368 694 l 368 236 l 479 236 l 479 694 l 757 694 l 757 236 l 868 236 l 868 694 l 1146 694 l 1146 236 l 1235 236 l 1235 -146 l 957 -146 l 957 0 z "},"ъ":{"ha":938,"x_min":0,"x_max":896,"o":"m 193 506 l 0 506 l 0 694 l 471 694 l 471 500 l 582 500 q 729 483 669 500 q 826 435 789 467 q 880 356 864 403 q 896 249 896 310 q 880 142 896 189 q 826 65 864 96 q 729 17 789 33 q 582 0 669 0 l 193 0 l 193 506 m 531 183 q 596 199 579 183 q 613 249 613 214 q 596 299 613 283 q 531 314 579 314 l 465 314 l 465 183 l 531 183 z "},"ы":{"ha":1217,"x_min":90,"x_max":1126,"o":"m 90 694 l 368 694 l 368 500 l 451 500 q 599 483 539 500 q 696 435 658 467 q 749 356 733 403 q 765 249 765 310 q 749 142 765 189 q 696 65 733 96 q 599 17 658 33 q 451 0 539 0 l 90 0 l 90 694 m 400 183 q 465 199 449 183 q 482 249 482 214 q 465 299 482 283 q 400 314 449 314 l 363 314 l 363 183 l 400 183 m 849 694 l 1126 694 l 1126 0 l 849 0 l 849 694 z "},"ь":{"ha":835,"x_min":90,"x_max":793,"o":"m 90 694 l 368 694 l 368 500 l 479 500 q 626 483 567 500 q 724 435 686 467 q 777 356 761 403 q 793 249 793 310 q 777 142 793 189 q 724 65 761 96 q 626 17 686 33 q 479 0 567 0 l 90 0 l 90 694 m 428 183 q 493 199 476 183 q 510 249 510 214 q 493 299 510 283 q 428 314 476 314 l 363 314 l 363 183 l 428 183 z "},"э":{"ha":940,"x_min":56,"x_max":885,"o":"m 468 -14 q 312 4 386 -14 q 181 60 238 22 q 90 155 124 97 q 56 292 56 213 l 358 292 q 375 243 361 264 q 410 209 386 224 q 476 194 435 194 q 543 208 521 194 q 576 236 565 221 q 589 278 589 254 l 414 278 l 414 417 l 589 417 q 575 458 588 440 q 542 487 564 474 q 476 500 519 500 q 410 485 433 500 q 375 451 386 469 q 358 403 361 429 l 56 403 q 90 540 56 482 q 181 635 124 597 q 312 690 238 672 q 468 708 386 708 q 636 687 560 708 q 767 620 713 665 q 853 507 822 575 q 885 347 885 439 q 853 186 885 254 q 767 74 822 118 q 636 8 713 29 q 468 -14 560 -14 z "},"ю":{"ha":1240,"x_min":90,"x_max":1185,"o":"m 810 -14 q 701 -3 749 -14 q 616 24 653 7 q 553 63 579 42 q 508 108 526 85 q 451 232 465 163 l 368 232 l 368 0 l 90 0 l 90 694 l 368 694 l 368 463 l 451 463 q 507 585 464 531 q 551 629 525 607 q 615 669 578 651 q 699 698 651 688 q 810 708 747 708 q 976 683 906 708 q 1094 610 1047 657 q 1163 496 1140 563 q 1185 347 1185 429 q 1163 199 1185 265 q 1094 85 1140 132 q 976 12 1047 38 q 810 -14 906 -14 m 810 222 q 875 258 857 222 q 893 347 893 294 q 889 397 893 374 q 875 436 885 419 q 849 463 865 453 q 810 472 833 472 q 744 435 761 472 q 726 347 726 399 q 731 298 726 321 q 744 258 735 275 q 770 232 754 242 q 810 222 786 222 z "},"я":{"ha":913,"x_min":56,"x_max":822,"o":"m 200 229 l 200 232 q 138 278 164 249 q 94 343 114 303 q 75 446 75 383 q 91 550 75 504 q 144 628 107 596 q 242 677 182 660 q 389 694 301 694 l 822 694 l 822 0 l 544 0 l 544 196 l 456 196 l 343 0 l 56 0 l 200 229 m 544 385 l 544 508 l 440 508 q 375 493 392 508 q 358 446 358 478 q 375 399 358 414 q 440 385 392 385 l 544 385 z "},"ё":{"ha":938,"x_min":56,"x_max":889,"o":"m 472 -14 q 304 8 381 -14 q 173 74 228 29 q 87 186 118 118 q 56 347 56 254 q 87 507 56 439 q 173 620 118 575 q 304 687 228 665 q 472 708 381 708 q 640 687 564 708 q 772 620 717 665 q 858 507 826 575 q 889 347 889 439 q 888 333 889 340 q 886 319 888 326 q 885 306 885 313 l 349 306 q 378 206 350 238 q 472 174 407 174 q 525 183 504 174 q 557 204 546 193 q 578 236 571 218 l 874 236 q 817 111 863 167 q 767 65 797 88 q 696 25 738 43 q 599 -3 654 7 q 472 -14 544 -14 m 583 431 q 556 497 583 467 q 472 528 528 528 q 387 499 417 528 q 357 431 357 469 l 583 431 m 315 788 q 230 810 263 788 q 197 888 197 833 q 230 963 197 940 q 315 986 263 986 q 401 963 368 986 q 433 888 433 940 q 401 810 433 833 q 315 788 368 788 m 635 788 q 549 810 582 788 q 517 888 517 833 q 549 963 517 940 q 635 986 582 986 q 720 963 688 986 q 753 888 753 940 q 720 810 753 833 q 635 788 688 788 z "},"–":{"ha":1042,"x_min":69,"x_max":972,"o":"m 69 443 l 972 443 l 972 256 l 69 256 l 69 443 z "},"—":{"ha":1403,"x_min":69,"x_max":1333,"o":"m 69 443 l 1333 443 l 1333 256 l 69 256 l 69 443 z "},"“":{"ha":750,"x_min":42,"x_max":708,"o":"m 203 543 q 85 585 128 543 q 42 721 42 626 q 55 837 42 788 q 91 919 68 886 q 144 969 114 953 q 208 986 174 986 l 208 899 q 219 842 208 860 q 244 816 229 824 q 278 804 260 808 q 311 789 296 800 q 337 753 326 778 q 347 681 347 729 q 308 578 347 614 q 203 543 269 543 m 564 543 q 446 585 489 543 q 403 721 403 626 q 416 837 403 788 q 452 919 429 886 q 505 969 475 953 q 569 986 535 986 l 569 899 q 580 842 569 860 q 606 816 590 824 q 639 804 621 808 q 672 789 657 800 q 698 753 688 778 q 708 681 708 729 q 669 578 708 614 q 564 543 631 543 z "},"”":{"ha":750,"x_min":42,"x_max":708,"o":"m 181 631 q 170 688 181 669 q 144 713 160 706 q 111 725 129 721 q 78 740 93 729 q 52 776 63 751 q 42 849 42 800 q 81 951 42 915 q 186 986 119 986 q 304 944 261 986 q 347 808 347 903 q 334 692 347 742 q 298 610 321 643 q 245 560 275 576 q 181 543 215 543 l 181 631 m 542 631 q 531 688 542 669 q 506 713 521 706 q 472 725 490 721 q 439 740 454 729 q 413 776 424 751 q 403 849 403 800 q 442 951 403 915 q 547 986 481 986 q 665 944 622 986 q 708 808 708 903 q 695 692 708 742 q 659 610 682 643 q 606 560 636 576 q 542 543 576 543 l 542 631 z "},"„":{"ha":750,"x_min":42,"x_max":708,"o":"m 181 -90 q 170 -33 181 -51 q 144 -8 160 -15 q 111 4 129 0 q 78 19 93 8 q 52 55 63 31 q 42 128 42 79 q 81 230 42 194 q 186 265 119 265 q 304 224 261 265 q 347 88 347 182 q 334 -28 347 21 q 298 -111 321 -78 q 245 -161 275 -144 q 181 -178 215 -178 l 181 -90 m 542 -90 q 531 -33 542 -51 q 506 -8 521 -15 q 472 4 490 0 q 439 19 454 8 q 413 55 424 31 q 403 128 403 79 q 442 230 403 194 q 547 265 481 265 q 665 224 622 265 q 708 88 708 182 q 695 -28 708 21 q 659 -111 682 -78 q 606 -161 636 -144 q 542 -178 576 -178 l 542 -90 z "},"…":{"ha":1153,"x_min":42,"x_max":1111,"o":"m 194 -14 q 83 24 124 -14 q 42 132 42 63 q 83 240 42 201 q 194 278 124 278 q 306 240 265 278 q 347 132 347 201 q 306 24 347 63 q 194 -14 265 -14 m 576 -14 q 465 24 506 -14 q 424 132 424 63 q 465 240 424 201 q 576 278 506 278 q 688 240 647 278 q 729 132 729 201 q 688 24 729 63 q 576 -14 647 -14 m 958 -14 q 847 24 888 -14 q 806 132 806 63 q 847 240 806 201 q 958 278 888 278 q 1070 240 1029 278 q 1111 132 1111 201 q 1070 24 1111 63 q 958 -14 1029 -14 z "},"€":{"ha":1192,"x_min":35,"x_max":1129,"o":"m 631 -14 q 310 71 438 -14 q 139 315 183 156 l 35 315 l 35 458 l 119 458 q 118 467 118 461 l 118 486 l 118 507 q 119 517 118 513 l 35 517 l 35 660 l 140 660 q 313 902 186 818 q 631 986 439 986 q 834 957 743 986 q 990 875 925 928 q 1092 748 1056 822 q 1129 583 1128 674 l 815 583 q 760 688 807 650 q 625 726 713 726 q 529 709 568 726 q 467 660 490 692 l 660 660 l 660 517 l 421 517 q 419 507 419 513 q 418 497 418 503 q 418 486 418 492 q 419 467 418 472 q 421 458 419 461 l 660 458 l 660 315 l 464 315 q 526 265 488 283 q 625 246 564 246 q 760 284 713 246 q 815 389 807 322 l 1129 389 q 1092 222 1128 297 q 990 95 1056 147 q 834 15 925 43 q 631 -14 743 -14 z "},"₽":{"ha":1067,"x_min":42,"x_max":1018,"o":"m 167 125 l 42 125 l 42 306 l 167 306 l 167 375 l 42 375 l 42 556 l 167 556 l 167 972 l 569 972 q 770 956 686 972 q 910 901 854 939 q 992 804 965 864 q 1018 660 1018 744 q 992 525 1018 579 q 910 438 965 471 q 770 390 854 404 q 569 375 686 375 l 472 375 l 472 306 l 806 306 l 806 125 l 472 125 l 472 0 l 167 0 l 167 125 m 569 556 q 667 576 636 556 q 699 653 699 597 q 667 729 699 708 q 569 750 636 750 l 472 750 l 472 556 l 569 556 z "}}}
